<?xml version="1.0" encoding="UTF-8"?>
<!DOCTYPE svg PUBLIC "-//W3C//DTD SVG 1.1//EN" "http://www.w3.org/Graphics/SVG/1.1/DTD/svg11.dtd">
<svg xmlns="http://www.w3.org/2000/svg" version="1.1" width="173px" height="244px" style="shape-rendering:geometricPrecision; text-rendering:geometricPrecision; image-rendering:optimizeQuality; fill-rule:evenodd; clip-rule:evenodd" xmlns:xlink="http://www.w3.org/1999/xlink">
<g><path style="opacity:1" fill="#fefefd" d="M -0.5,-0.5 C 57.1667,-0.5 114.833,-0.5 172.5,-0.5C 172.5,80.8333 172.5,162.167 172.5,243.5C 114.833,243.5 57.1667,243.5 -0.5,243.5C -0.5,162.167 -0.5,80.8333 -0.5,-0.5 Z"/></g>
<g><path style="opacity:1" fill="#cb823c" d="M 117.5,81.5 C 116.957,81.56 116.624,81.8933 116.5,82.5C 127.146,83.4987 137.813,83.832 148.5,83.5C 165.415,87.6442 171.915,98.3109 168,115.5C 164.833,122.667 159.667,127.833 152.5,131C 144.173,131.5 135.84,131.666 127.5,131.5C 134.028,149.914 140.861,168.247 148,186.5C 148,209.765 136.5,219.265 113.5,215C 107.608,212.108 103.441,207.608 101,201.5C 97.3044,190.899 93.1377,180.566 88.5,170.5C 83.1781,181.966 78.3448,193.633 74,205.5C 65.4705,216.67 54.6372,219.504 41.5,214C 34.8773,209.908 30.8773,204.075 29.5,196.5C 29.2909,190.27 30.2909,184.27 32.5,178.5C 38.1595,163.178 43.8262,147.845 49.5,132.5C 40.1272,131.888 30.7939,131.055 21.5,130C 6.74608,119.816 3.91275,106.983 13,91.5C 16.6704,87.3083 21.1704,84.6417 26.5,83.5C 37.8333,83.5 49.1667,83.5 60.5,83.5C 59.3661,78.7021 56.6994,75.0354 52.5,72.5C 41.8024,51.4979 45.1357,32.9979 62.5,17C 83.6929,4.02536 103.193,6.19203 121,23.5C 134.571,43.8302 133.404,63.1636 117.5,81.5 Z"/></g>
<g><path style="opacity:1" fill="#fcf4ea" d="M 102.5,39.5 C 108.487,38.9773 110.487,41.4773 108.5,47C 101.75,48.4689 99.7496,45.9689 102.5,39.5 Z"/></g>
<g><path style="opacity:1" fill="#fbf8ee" d="M 73.5,39.5 C 77.1667,47.1667 75.1667,49.1667 67.5,45.5C 67.1667,41.1667 69.1667,39.1667 73.5,39.5 Z"/></g>
<g><path style="opacity:1" fill="#cb9667" d="M 73.5,39.5 C 74.4959,39.4142 75.3292,39.7476 76,40.5C 77.9361,47.9149 75.1028,50.5816 67.5,48.5C 67.5,47.5 67.5,46.5 67.5,45.5C 75.1667,49.1667 77.1667,47.1667 73.5,39.5 Z"/></g>
<g><path style="opacity:1" fill="#fbe8d0" d="M 74.5,64.5 C 83.3238,63.3427 92.3238,63.176 101.5,64C 102.381,64.7083 103.047,65.5416 103.5,66.5C 102.022,67.4475 101.022,68.7809 100.5,70.5C 100.768,68.901 100.434,67.5676 99.5,66.5C 99.6107,65.8826 99.944,65.3826 100.5,65C 91.8397,64.5002 83.1731,64.3336 74.5,64.5 Z"/></g>
<g><path style="opacity:1" fill="#fef9f3" d="M 74.5,64.5 C 83.1731,64.3336 91.8397,64.5002 100.5,65C 99.944,65.3826 99.6107,65.8826 99.5,66.5C 91.8333,66.5 84.1667,66.5 76.5,66.5C 75.9779,68.2191 74.9779,69.5525 73.5,70.5C 73.5,69.1667 73.5,67.8333 73.5,66.5C 73.3284,65.5084 73.6618,64.8417 74.5,64.5 Z"/></g>
<g><path style="opacity:1" fill="#c08956" d="M 73.5,66.5 C 73.5,67.8333 73.5,69.1667 73.5,70.5C 73.9528,71.4584 74.6195,72.2917 75.5,73C 84.3433,73.8236 93.0099,73.6569 101.5,72.5C 103.28,71.0101 103.946,69.0101 103.5,66.5C 104.979,69.1431 104.646,71.6431 102.5,74C 93.1667,74.6667 83.8333,74.6667 74.5,74C 72.3542,71.6431 72.0209,69.1431 73.5,66.5 Z"/></g>
<g><path style="opacity:1" fill="#fefaf8" d="M 103.5,66.5 C 103.946,69.0101 103.28,71.0101 101.5,72.5C 93.16,72.6664 84.8267,72.4997 76.5,72C 84.0115,71.8288 91.3448,71.3288 98.5,70.5C 99.1667,70.5 99.8333,70.5 100.5,70.5C 101.022,68.7809 102.022,67.4475 103.5,66.5 Z"/></g>
<g><path style="opacity:1" fill="#fde9d5" d="M 76.5,66.5 C 76.5,67.8333 76.5,69.1667 76.5,70.5C 83.8333,70.5 91.1667,70.5 98.5,70.5C 91.3448,71.3288 84.0115,71.8288 76.5,72C 84.8267,72.4997 93.16,72.6664 101.5,72.5C 93.0099,73.6569 84.3433,73.8236 75.5,73C 74.6195,72.2917 73.9528,71.4584 73.5,70.5C 74.9779,69.5525 75.9779,68.2191 76.5,66.5 Z"/></g>
<g><path style="opacity:1" fill="#cb833f" d="M 76.5,66.5 C 84.1667,66.5 91.8333,66.5 99.5,66.5C 100.434,67.5676 100.768,68.901 100.5,70.5C 99.8333,70.5 99.1667,70.5 98.5,70.5C 91.1667,70.5 83.8333,70.5 76.5,70.5C 76.5,69.1667 76.5,67.8333 76.5,66.5 Z"/></g>
<g><path style="opacity:1" fill="#c48f60" d="M 52.5,72.5 C 56.6994,75.0354 59.3661,78.7021 60.5,83.5C 49.1667,83.5 37.8333,83.5 26.5,83.5C 37.3257,82.6695 48.3257,82.1695 59.5,82C 56.9491,78.9556 54.6158,75.7889 52.5,72.5 Z"/></g>
<g><path style="opacity:1" fill="#c38e61" d="M 117.5,81.5 C 127.833,82.1667 138.167,82.8333 148.5,83.5C 137.813,83.832 127.146,83.4987 116.5,82.5C 116.624,81.8933 116.957,81.56 117.5,81.5 Z"/></g>
<g><path style="opacity:1" fill="#ad7947" d="M 94.5,111.5 C 96.1433,103.143 92.81,99.81 84.5,101.5C 85.5145,100.235 87.0145,99.5687 89,99.5C 93.8006,99.5484 96.3006,102.048 96.5,107C 96.6932,109.008 96.0265,110.508 94.5,111.5 Z"/></g>
<g><path style="opacity:1" fill="#0b0203" d="M 94.5,111.5 C 88.3547,116.212 84.0214,114.879 81.5,107.5C 82.001,105.164 83.001,103.164 84.5,101.5C 92.81,99.81 96.1433,103.143 94.5,111.5 Z"/></g>
<g><path style="opacity:1" fill="#0c0303" d="M 85.5,128.5 C 92.706,128.202 95.8727,131.535 95,138.5C 90.0688,144.172 85.7354,143.839 82,137.5C 81.3333,135.833 81.3333,134.167 82,132.5C 83.3756,131.295 84.5423,129.962 85.5,128.5 Z"/></g>
<g><path style="opacity:1" fill="#cd9b6b" d="M 32.5,178.5 C 30.2909,184.27 29.2909,190.27 29.5,196.5C 27.7434,190.101 28.7434,184.101 32.5,178.5 Z"/></g>
</svg>
